<svg id="SvgjsSvg1001" width="256" height="256" xmlns="http://www.w3.org/2000/svg" version="1.1"
    xmlns:xlink="http://www.w3.org/1999/xlink" xmlns:svgjs="http://svgjs.com/svgjs">
    <defs id="SvgjsDefs1002"></defs>
    <g id="SvgjsG1008">
        <svg xmlns="http://www.w3.org/2000/svg" enable-background="new 0 0 135 135"
            viewBox="0 0 135 135" width="256" height="256">
            <path fill="#d6dce8"
                d="M129.2137299,67.4986572c0-34.110466-27.6557617-61.6165581-61.6165543-61.6165581
    c-19.5440521,0-36.9699631,9.1076603-48.2534637,23.2987137C10.977334,39.6941833,5.9806137,53.0090942,5.9806137,67.4986572
    c0,20.6587448,10.1963978,39.0598907,25.9944859,50.284874c10.0607815,7.1340103,22.3552303,11.3316879,35.6220779,11.3316879
    C101.7319107,129.1152191,129.2137299,101.4329071,129.2137299,67.4986572z"
                class="colord6dce8 svgShape"></path>
            <linearGradient id="a" x1="67.044" x2="67.613" y1="135.646" y2="112.468"
                gradientUnits="userSpaceOnUse">
                <stop offset="0" stop-color="#d6dce8" class="stopColord6dce8 svgShape"></stop>
                <stop offset="1" stop-color="#ffffff" class="stopColorfff svgShape"></stop>
            </linearGradient>
            <path fill="url(#a)"
                d="M26.1464367,113.0745316c1.8459969,1.6814499,3.7889042,3.2597733,5.8287239,4.7090454
    c10.0607281,7.133934,22.3550968,11.3317337,35.6219635,11.3317337c15.0960159,0,29.8379974-5.459259,41.4530182-16.0407791
    H26.1464367z"></path>
            <path fill="#d6dce8"
                d="M125.8381271 20.3539333c1.2310715-1.0635967 1.3524628-2.9405823.2889557-4.1715508s-2.9239349-1.3668461-4.1550064-.3032503c-1.2309647 1.063508-1.3833008 2.9383307-.3197937 4.1692991C122.7157898 21.2794018 124.6071625 21.4174423 125.8381271 20.3539333zM127.3584747 27.4431686c.7835541-.6769524.8608093-1.8716068.1839142-2.6550884-.6768951-.7834797-1.8610077-.8699627-2.6445541-.1930103-.7834854.676897-.8804398 1.8701744-.2035446 2.653656S126.5749969 28.1200657 127.3584747 27.4431686zM127.3161926 105.6443634c1.4787445.6782837 3.2366791.0093231 3.9149017-1.4693069s.0293121-3.2275085-1.4494324-3.9057846c-1.4786377-.6782227-3.2474442-.0383148-3.9256668 1.4403152S125.8375626 104.9661407 127.3161926 105.6443634zM122.2957535 111.6210632c.9411926.4317093 2.0600662.005928 2.4917374-.9351807.4316788-.9411163.0186615-2.0542297-.9225235-2.485939-.9411087-.4316711-2.0669174-.0243835-2.4985886.9167252C120.9347076 110.057785 121.3546448 111.1893921 122.2957535 111.6210632zM8.5038004 109.1088867c1.2310705-1.0635986 1.352459-2.9405823.2889509-4.1715546-1.0635076-1.2309647-2.9239311-1.3668442-4.1550012-.3032455-1.2309687 1.0635071-1.3833075 2.9383316-.3197994 4.1692963C5.3814588 110.0343552 7.2728314 110.1723938 8.5038004 109.1088867z"
                class="colord6dce8 svgShape"></path>
            <linearGradient id="b" x1="91.914" x2="107.458" y1="108.807" y2="108.807"
                gradientUnits="userSpaceOnUse">
                <stop offset="0" stop-color="#989fb0" class="stopColor989fb0 svgShape"></stop>
                <stop offset="1" stop-color="#aab2c5" class="stopColoraab2c5 svgShape"></stop>
            </linearGradient>
            <path fill="url(#b)"
                d="M107.4580688,108.8045731c0,4.2976151-3.4771729,7.7747879-7.7692032,7.7747879
    c-4.2977448,0-7.7746429-3.4771729-7.7746429-7.7747879c0-4.2920914,3.4768982-7.7693329,7.7746429-7.7693329
    C103.980896,101.0352402,107.4580688,104.5124817,107.4580688,108.8045731z"></path>
            <path fill="#aab2c5"
                d="M47.5666008,108.5357666L33.1959991,26.0955753h-5.2938557l14.5205212,83.3184662
            c0.2170181,1.2723923,1.320385,2.1702042,2.5689964,2.1702042c0.145668,0,0.2934647-0.0118942,0.4421082-0.0373764
            C46.8543816,111.3047943,47.8091049,109.9559555,47.5666008,108.5357666z"
                class="coloraab2c5 svgShape"></path>
            <linearGradient id="c" x1="36.482" x2="52.025" y1="108.807" y2="108.807"
                gradientUnits="userSpaceOnUse">
                <stop offset="0" stop-color="#989fb0" class="stopColor989fb0 svgShape"></stop>
                <stop offset="1" stop-color="#aab2c5" class="stopColoraab2c5 svgShape"></stop>
            </linearGradient>
            <path fill="url(#c)"
                d="M52.0253563,108.8045731c0,4.2976151-3.477169,7.7747879-7.7691956,7.7747879
    c-4.2977486,0-7.7746506-3.4771729-7.7746506-7.7747879c0-4.2920914,3.476902-7.7693329,7.7746506-7.7693329
    C48.5481873,101.0352402,52.0253563,104.5124817,52.0253563,108.8045731z"></path>
            <path fill="#aab2c5"
                d="M98.9265671,106.3655548H33.3668327L17.2126083,26.0955753h-5.3189125l16.7674885,83.3838654
            c0.2408028,1.2231293,1.3135891,2.104805,2.5600777,2.104805h67.705307c1.4409943,0,2.6093369-1.167923,2.6093369-2.6093445
            S100.3675613,106.3655548,98.9265671,106.3655548z"
                class="coloraab2c5 svgShape"></path>
            <linearGradient id="d" x1="98.831" x2="109.818" y1="65.843" y2="66.906"
                gradientUnits="userSpaceOnUse">
                <stop offset="0" stop-color="#989fb0" class="stopColor989fb0 svgShape"></stop>
                <stop offset="1" stop-color="#aab2c5" class="stopColoraab2c5 svgShape"></stop>
            </linearGradient>
            <path fill="url(#d)"
                d="M115.6851349,40.2732582l-8.6978073,46.3506508
            c-0.6262207,3.3659439-3.5660782,5.8100815-7.0017242,5.8100815h-17.212944
            c-0.4784241,0-0.8697815-0.3828659-0.8697815-0.8697815c0-0.4784241,0.3913574-0.8697815,0.8697815-0.8697815
            c2.5919266,0,4.8185654-1.8440399,5.296936-4.3924332l8.6891022-46.3506584
            c0.0695953-0.4087715,0.4348907-0.7045746,0.852417-0.7045746h17.2216492c0.2609253,0,0.5044937,0.1131821,0.669754,0.3132172
            C115.667778,39.7600098,115.7373199,40.0209846,115.6851349,40.2732582z"></path>
            <linearGradient id="e" x1="14.869" x2="98.481" y1="65.84" y2="65.84"
                gradientUnits="userSpaceOnUse">
                <stop offset="0" stop-color="#aab2c5" class="stopColoraab2c5 svgShape"></stop>
                <stop offset="1" stop-color="#d6dce8" class="stopColord6dce8 svgShape"></stop>
            </linearGradient>
            <path fill="url(#e)"
                d="M98.4634857,40.2732582l-8.680397,46.3506508
            c-0.6349792,3.3659439-3.5748367,5.8100815-7.0017242,5.8100815H31.0032864
            c-3.3921661,0-6.3320313-2.4180222-6.9843655-5.7493439l-9.132699-46.4028969
            c-0.0521851-0.2520561,0.0174122-0.5130348,0.1826725-0.7130661c0.1652603-0.2087402,0.4088249-0.3219223,0.6697483-0.3219223
            h81.8724747c0.2609253,0,0.5044403,0.1131821,0.6697006,0.3132172
            C98.4460754,39.7600098,98.5156708,40.0209846,98.4634857,40.2732582z"></path>
            <linearGradient id="f" x1="22.708" x2="38.252" y1="108.807" y2="108.807"
                gradientUnits="userSpaceOnUse">
                <stop offset="0" stop-color="#989fb0" class="stopColor989fb0 svgShape"></stop>
                <stop offset="1" stop-color="#aab2c5" class="stopColoraab2c5 svgShape"></stop>
            </linearGradient>
            <path fill="url(#f)"
                d="M38.2522011,108.8045731c0,4.2976151-3.4771729,7.7747879-7.7691994,7.7747879
    c-4.2977486,0-7.7746468-3.4771729-7.7746468-7.7747879c0-4.2920914,3.4768982-7.7693329,7.7746468-7.7693329
    C34.7750282,101.0352402,38.2522011,104.5124817,38.2522011,108.8045731z"></path>
            <linearGradient id="g" x1="27.141" x2="33.819" y1="108.807" y2="108.807"
                gradientUnits="userSpaceOnUse">
                <stop offset="0" stop-color="#d6dce8" class="stopColord6dce8 svgShape"></stop>
                <stop offset="1" stop-color="#f1f3f9" class="stopColorf1f3f9 svgShape"></stop>
            </linearGradient>
            <path fill="url(#g)"
                d="M33.8192368,108.8061295c0,1.8463364-1.4938545,3.3401947-3.3377895,3.3401947
    c-1.8463917,0-3.3401318-1.4938583-3.3401318-3.3401947c0-1.8439636,1.4937401-3.3378448,3.3401318-3.3378448
    C32.3253822,105.4682846,33.8192368,106.9621658,33.8192368,108.8061295z"></path>
            <linearGradient id="h" x1="78.226" x2="93.77" y1="108.807" y2="108.807"
                gradientUnits="userSpaceOnUse">
                <stop offset="0" stop-color="#989fb0" class="stopColor989fb0 svgShape"></stop>
                <stop offset="1" stop-color="#aab2c5" class="stopColoraab2c5 svgShape"></stop>
            </linearGradient>
            <path fill="url(#h)"
                d="M93.769928,108.8045731c0,4.2976151-3.4771729,7.7747879-7.7691956,7.7747879
        c-4.2977524,0-7.7746506-3.4771729-7.7746506-7.7747879c0-4.2920914,3.4768982-7.7693329,7.7746506-7.7693329
        C90.2927551,101.0352402,93.769928,104.5124817,93.769928,108.8045731z"></path>
            <linearGradient id="i" x1="82.659" x2="89.337" y1="108.807" y2="108.807"
                gradientUnits="userSpaceOnUse">
                <stop offset="0" stop-color="#d6dce8" class="stopColord6dce8 svgShape"></stop>
                <stop offset="1" stop-color="#f1f3f9" class="stopColorf1f3f9 svgShape"></stop>
            </linearGradient>
            <path fill="url(#i)"
                d="M89.3369675,108.8061295c0,1.8463364-1.4938583,3.3401947-3.3377914,3.3401947
        c-1.8463898,0-3.3401337-1.4938583-3.3401337-3.3401947c0-1.8439636,1.4937439-3.3378448,3.3401337-3.3378448
        C87.8431091,105.4682846,89.3369675,106.9621658,89.3369675,108.8061295z"></path>
            <path fill="#aab2c5"
                d="M36.2995911,25.3116837v2.6474361c0,0.7289886-0.5909615,1.319952-1.3199501,1.319952H8.4187584
    c-1.9822502,0-3.7774162-1.1707573-4.5766292-2.9847507l-0.2334917-0.5299625
    c-0.3678777-0.83498,0.2436295-1.7726269,1.1560585-1.7726269H34.979641
    C35.7086296,23.9917316,36.2995911,24.582695,36.2995911,25.3116837z"
                class="coloraab2c5 svgShape"></path>
            <linearGradient id="j" x1="55.234" x2="58.728" y1="65.84" y2="65.84"
                gradientUnits="userSpaceOnUse">
                <stop offset="0" stop-color="#d6dce8" class="stopColord6dce8 svgShape"></stop>
                <stop offset="1" stop-color="#f1f3f9" class="stopColorf1f3f9 svgShape"></stop>
            </linearGradient>
            <path fill="url(#j)"
                d="M58.7278633,53.2598686v25.1610146c0,0.9649124-0.7822151,1.7471313-1.7471313,1.7471313h-0.0000038
            c-0.9649124,0-1.7471313-0.7822189-1.7471313-1.7471313V53.2598686c0-0.9649124,0.7822189-1.7471313,1.7471313-1.7471313
            h0.0000038C57.9456482,51.5127373,58.7278633,52.2949562,58.7278633,53.2598686z"></path>
            <linearGradient id="k" x1="65.556" x2="69.05" y1="65.84" y2="65.84"
                gradientUnits="userSpaceOnUse">
                <stop offset="0" stop-color="#d6dce8" class="stopColord6dce8 svgShape"></stop>
                <stop offset="1" stop-color="#f1f3f9" class="stopColorf1f3f9 svgShape"></stop>
            </linearGradient>
            <path fill="url(#k)"
                d="M69.0502548,53.2598686v25.1610146c0,0.9649124-0.7822189,1.7471313-1.7471313,1.7471313h-0.0000076
            c-0.9649124,0-1.7471313-0.7822189-1.7471313-1.7471313V53.2598686c0-0.9649124,0.7822189-1.7471313,1.7471313-1.7471313
            h0.0000076C68.2680359,51.5127373,69.0502548,52.2949562,69.0502548,53.2598686z"></path>
            <linearGradient id="l" x1="75.878" x2="79.373" y1="65.84" y2="65.84"
                gradientUnits="userSpaceOnUse">
                <stop offset="0" stop-color="#d6dce8" class="stopColord6dce8 svgShape"></stop>
                <stop offset="1" stop-color="#f1f3f9" class="stopColorf1f3f9 svgShape"></stop>
            </linearGradient>
            <path fill="url(#l)"
                d="M79.3726425,53.2598686v25.1610146c0,0.9649124-0.7822189,1.7471313-1.7471313,1.7471313h-0.0000076
            c-0.9649124,0-1.7471313-0.7822189-1.7471313-1.7471313V53.2598686c0-0.9649124,0.7822189-1.7471313,1.7471313-1.7471313
            h0.0000076C78.5904236,51.5127373,79.3726425,52.2949562,79.3726425,53.2598686z"></path>
            <linearGradient id="m" x1="44.605" x2="48.1" y1="65.84" y2="65.84"
                gradientUnits="userSpaceOnUse">
                <stop offset="0" stop-color="#d6dce8" class="stopColord6dce8 svgShape"></stop>
                <stop offset="1" stop-color="#f1f3f9" class="stopColorf1f3f9 svgShape"></stop>
            </linearGradient>
            <path fill="url(#m)"
                d="M48.0995979,53.2598686v25.1610146c0,0.9649124-0.7822189,1.7471313-1.7471313,1.7471313h-0.0000038
            c-0.9649124,0-1.7471313-0.7822189-1.7471313-1.7471313V53.2598686c0-0.9649124,0.7822189-1.7471313,1.7471313-1.7471313
            h0.0000038C47.317379,51.5127373,48.0995979,52.2949562,48.0995979,53.2598686z"></path>
            <linearGradient id="n" x1="33.977" x2="37.471" y1="65.84" y2="65.84"
                gradientUnits="userSpaceOnUse">
                <stop offset="0" stop-color="#d6dce8" class="stopColord6dce8 svgShape"></stop>
                <stop offset="1" stop-color="#f1f3f9" class="stopColorf1f3f9 svgShape"></stop>
            </linearGradient>
            <path fill="url(#n)"
                d="M37.4713326,53.2598686v25.1610146c0,0.9649124-0.7822189,1.7471313-1.7471313,1.7471313h-0.0000038
            c-0.9649162,0-1.7471313-0.7822189-1.7471313-1.7471313V53.2598686c0-0.9649124,0.7822151-1.7471313,1.7471313-1.7471313
            h0.0000038C36.6891136,51.5127373,37.4713326,52.2949562,37.4713326,53.2598686z"></path>
            <g fill="#000000" class="color000 svgShape">
                <circle cx="65.714" cy="28.528" r="16.189" fill="#ffffff"
                    transform="rotate(-45 65.714 28.528)" class="colorfff svgShape"></circle>
                <path fill="#aab2c5"
                    d="M65.7135773,45.7174301c-9.4775391,0-17.1884766-7.7109375-17.1884766-17.1892071
        c0-9.4780273,7.7109375-17.1889648,17.1884766-17.1889648c9.4785156,0,17.1894531,7.7109375,17.1894531,17.1889648
        C82.9030304,38.0064926,75.1920929,45.7174301,65.7135773,45.7174301z M65.7135773,13.3392582
        c-8.375,0-15.1884766,6.8137207-15.1884766,15.1889648s6.8134766,15.1892071,15.1884766,15.1892071
        c8.3759766,0,15.1894531-6.8139648,15.1894531-15.1892071S74.0895538,13.3392582,65.7135773,13.3392582z"
                    class="coloraab2c5 svgShape"></path>
            </g>
            <circle cx="65.714" cy="28.528" r="10.924" fill="#aab2c5"
                transform="rotate(-45 65.714 28.528)" class="coloraab2c5 svgShape"></circle>
            <g fill="#000000" class="color000 svgShape">
                <path fill="#ffffff"
                    d="M70.3667526,33.1788216c-0.5631409,0.5631409-1.4519424,0.5203629-1.9630051,0l-2.6875-2.6875
        l-2.6923943,2.6875c-0.543396,0.5433655-1.4196396,0.5433655-1.9630089,0
        c-0.5452614-0.5452652-0.5377197-1.4252892,0-1.9630089l2.6875-2.6874981l-2.6875-2.6874962
        c-0.5433655-0.5433979-0.5433655-1.4245415,0-1.9630089c0.5095673-0.5188389,1.3984108-0.5645981,1.9630089,0
        l2.6923943,2.6874981l2.6875-2.6874981c0.5433655-0.5433674,1.4196091-0.5433674,1.9630051,0
        c0.5450821,0.5353374,0.538681,1.433897,0,1.9630089l-2.6875229,2.6874962l2.6875229,2.6874981
        C70.9101257,31.7591801,70.9101257,32.6403236,70.3667526,33.1788216z"
                    class="colorfff svgShape"></path>
            </g>
        </svg>
    </g>
</svg>